<svg width="997" height="1085" viewBox="0 0 997 1085" fill="none" xmlns="http://www.w3.org/2000/svg">
<g id="graph1">
<rect width="997" height="1085" fill="#F3F0ED"/>
<path id="Vector" d="M61.9299 93.54H81.8099V97.47H66.4V106.03H79.9299V109.92H66.4V122.54H61.9299V93.54Z" fill="#4A8BF1"/>
<path id="Vector_2" d="M99.7401 123C91.1701 123 85.5701 117 85.5701 108C85.5701 99 91.1701 93 99.7401 93C108.31 93 113.9 99 113.9 108C113.9 117 108.3 123 99.7401 123ZM99.7401 96.93C94.3501 96.93 90.3 101.15 90.3 108.04C90.3 114.93 94.3501 119.2 99.7401 119.2C105.13 119.2 109.22 114.98 109.22 108.09C109.22 101.2 105.13 96.93 99.7401 96.93Z" fill="#4A8BF1"/>
<path id="Vector_3" d="M120.17 111.2V93.54H124.64V111.2C124.64 116.2 127.52 119.1 131.99 119.1C136.46 119.1 139.39 116.22 139.39 111.2V93.54H143.86V111.2C143.86 119.2 139.01 122.99 131.99 122.99C124.97 122.99 120.17 119.2 120.17 111.2Z" fill="#4A8BF1"/>
<path id="Vector_4" d="M177 122.54H171.32L156.53 98.85V122.54H152.22V93.54H157.9L172.69 117.27V93.54H177V122.54Z" fill="#4A8BF1"/>
<path id="Vector_5" d="M196.54 122.54H185.81V93.54H196.54C205.98 93.54 211.08 99.6 211.08 108.04C211.08 116.48 206 122.54 196.54 122.54ZM196.42 97.4301H190.28V118.65H196.42C202.64 118.65 206.36 114.56 206.36 108.04C206.36 101.52 202.64 97.4301 196.42 97.4301V97.4301Z" fill="#4A8BF1"/>
<path id="Vector_6" d="M59.46 143.68C67.19 143.68 71.37 148.86 71.37 155.42C71.37 165.24 65.31 172.67 54.82 172.67H44L49.1 143.67L59.46 143.68ZM55.16 168.87C62.22 168.87 66.82 163.36 66.82 155.75C66.82 150.4 63.89 147.48 58.71 147.48H52.86L49.1 168.87H55.16Z" fill="#4A8BF1"/>
<path id="Vector_7" d="M80.48 143.68H84.91L79.81 172.68H75.38L80.48 143.68Z" fill="#4A8BF1"/>
<path id="Vector_8" d="M99.5301 168.08L112.27 143.68H117L101.67 172.68H96.1L91.05 143.68H95.48L99.5301 168.08Z" fill="#4A8BF1"/>
<path id="Vector_9" d="M123.13 143.68H143.44L142.77 147.52H126.85L125.39 155.96H139.8L139.18 159.76H124.72L123.13 168.76H139.22L138.55 172.64H118L123.13 143.68Z" fill="#4A8BF1"/>
<path id="Vector_10" d="M151.29 143.68H163.41C169.01 143.68 172.31 146.68 172.31 151.07C172.31 155.71 169.59 159.18 164.71 160.14L169.8 172.67H165.08L160.28 160.81H152.71L150.63 172.67H146.2L151.29 143.68ZM160.86 157.2C164.58 157.2 167.76 155.45 167.76 151.4C167.76 148.64 165.83 147.34 162.57 147.34H155.05L153.34 157.2H160.86Z" fill="#4A8BF1"/>
<path id="Vector_11" d="M187.56 173.13C181.33 173.13 175.78 170.37 176.11 163.82H180.58C180.71 167.53 183.46 169.46 187.73 169.46C191.19 169.46 194.73 168.04 194.73 164.82C194.73 162.69 193.27 161.56 190.97 160.82L185.25 158.98C181.95 157.98 179.36 155.47 179.36 151.59C179.36 146.41 184 143.19 190.18 143.19C195.9 143.19 201.08 146.19 200.83 152.05H196.32C196.24 148.45 193.56 146.82 190.01 146.82C186.8 146.82 183.7 148.24 183.7 151.29C183.7 153.38 185.25 154.64 187.51 155.35L193.19 157.14C196.53 158.14 199.08 160.36 199.08 164.29C199.05 169.96 193.83 173.13 187.56 173.13Z" fill="#4A8BF1"/>
<path id="Vector_12" d="M209.7 143.68H230L229.33 147.52H213.41L211.95 155.96H226.36L225.74 159.76H211.28L209.69 168.76H225.78L225.11 172.64H204.6L209.7 143.68Z" fill="#4A8BF1"/>
<path id="Vector_13" d="M842.17 963.38H866.66V967.38H856.66V992.32H852.19V967.38H842.19L842.17 963.38Z" fill="#4A8BF1"/>
<path id="Vector_14" d="M872.88 963.38H877.35V992.38H872.88V963.38Z" fill="#4A8BF1"/>
<path id="Vector_15" d="M890.3 968.27V992.37H886V963.37H892.6L901.6 987.68L910.6 963.37H917.16V992.37H912.86V968.27L903.92 992.37H899.15L890.3 968.27Z" fill="#4A8BF1"/>
<path id="Vector_16" d="M925.86 963.38H946.75V967.31H930.33V975.62H945.25V979.46H930.33V988.4H947V992.4H925.86V963.38Z" fill="#4A8BF1"/>
<path id="Vector_17" d="M139 196.2V946.2" stroke="#4A8BF1" stroke-width="5.67" stroke-miterlimit="10"/>
<path id="Vector_18" d="M952 946.2H138" stroke="#4A8BF1" stroke-width="5.67" stroke-miterlimit="10"/>
<g id="together">
<path id="Vector_19" d="M164 899.33L180.58 871.86L184.13 874L177.01 885.8L206.74 903.73L204.39 907.62L174.67 889.68L167.55 901.47L164 899.33Z" fill="#4A8BF1"/>
<path id="Vector_20" d="M226.9 875.46C220.2 884.22 209.28 885.31 199.72 877.99C190.16 870.67 188.36 859.85 195.06 851.09C201.76 842.33 212.69 841.24 222.25 848.56C231.81 855.88 233.61 866.7 226.9 875.46ZM198.27 853.54C193.6 859.63 194.56 868.05 202.61 874.22C210.66 880.39 219.04 879.1 223.7 873.01C228.36 866.92 227.41 858.5 219.36 852.34C211.31 846.18 202.93 847.45 198.27 853.54Z" fill="#4A8BF1"/>
<path id="Vector_21" d="M240.46 828.96L252.1 817.32L266.15 831.37L263.3 834.23L258.67 829.59C260.02 834.59 258.75 839.65 254.2 844.2C246.48 851.93 235.51 850.7 227.43 842.62C219.03 834.23 218.43 823.22 226.2 815.5C232.1 809.6 240.53 807.98 247.7 813.32L244.29 816.73C241.987 815.13 239.186 814.409 236.397 814.699C233.607 814.989 231.014 816.27 229.09 818.31C223.43 823.98 224.09 832.57 230.79 839.31C237.49 846.05 246.08 846.75 251.58 841.25C256.02 836.81 257.84 829.53 251.98 823.19L243.31 831.86L240.46 828.96Z" fill="#4A8BF1"/>
<path id="Vector_22" d="M249.3 794.79L270.71 777.9L273.21 781.07L255.36 795.14L263.36 805.26L279.63 792.43L282.13 795.59L265.86 808.43L274.43 819.29L292.5 805.03L295 808.2L273.37 825.27L249.3 794.79Z" fill="#4A8BF1"/>
<path id="Vector_23" d="M277.9 772.74L304.9 755.42L307.13 758.91L295.54 766.35L314.27 795.58L310.46 798.02L291.72 768.79L280.12 776.23L277.9 772.74Z" fill="#4A8BF1"/>
<path id="Vector_24" d="M313.85 750.32L317.85 748.24L325.43 762.85L345.12 752.64L337.54 738.02L341.54 735.94L359.44 770.44L355.44 772.53L347.01 756.27L327.32 766.48L335.75 782.74L331.75 784.83L313.85 750.32Z" fill="#4A8BF1"/>
<path id="Vector_25" d="M353.76 730.39L378.86 719.74L380.43 723.45L359.51 732.33L364.51 744.19L383.58 736.09L385.15 739.81L366.08 747.9L371.48 760.63L392.67 751.63L394.26 755.39L368.93 766.2L353.76 730.39Z" fill="#4A8BF1"/>
<path id="Vector_26" d="M389.41 715.68L404.83 710.231C412.83 707.421 418.83 709.441 421.27 716.231C423.27 721.781 421.15 726.141 416.4 729.231L432.14 741.851L427.14 743.601L411.89 731.34L401.06 735.16L406.6 750.851L402.32 752.361L389.41 715.68ZM410.75 727.511C415.98 725.661 418.55 722.68 416.84 717.82C415.13 712.96 411.25 712.25 406.02 714.09L395.02 717.971L399.76 731.381L410.75 727.511Z" fill="#4A8BF1"/>
<path id="Vector_27" d="M483.48 727.12L465.09 696.12L464.65 732.12L458.65 733.71L438.37 698.91L442.91 697.69L460.71 728.69L461.2 692.84L466.82 691.33L485.17 722.13L485.11 686.43L489.54 685.24L489.38 725.53L483.48 727.12Z" fill="#4A8BF1"/>
<path id="Vector_28" d="M497.72 683.86L524.14 677.11L525.14 681.01L503.14 686.65L506.33 699.12L526.4 693.99L527.4 697.9L507.33 703.03L510.75 716.43L533.05 710.73L534.05 714.73L507.36 721.55L497.72 683.86Z" fill="#4A8BF1"/>
<path id="Vector_29" d="M572.87 697.63C575.484 696.685 577.666 694.823 579.009 692.389C580.352 689.955 580.765 687.116 580.17 684.4L584.65 682.63C586.65 690.63 582.65 698.09 574.35 701.38C564.35 705.38 554.35 700.66 549.96 689.46C545.57 678.26 549.63 668.03 559.63 664.09C567.96 660.8 575.92 663.56 579.96 670.75L575.48 672.52C574.06 670.13 571.82 668.337 569.176 667.476C566.532 666.615 563.665 666.744 561.11 667.84C554.03 670.63 550.77 678.54 554.39 687.71C558.01 696.88 565.79 700.43 572.87 697.63Z" fill="#4A8BF1"/>
<path id="Vector_30" d="M581.52 655.62L585.52 653.46L593.36 667.93L612.86 657.37L605.02 642.89L609.02 640.73L627.53 674.91L623.53 677.07L614.81 660.96L595.31 671.53L604.03 687.63L600.03 689.79L581.52 655.62Z" fill="#4A8BF1"/>
<path id="Vector_31" d="M652.33 643.98L637.39 654.98L640.39 666.66L636.64 669.41L626.35 628.75L630.68 625.57L666.46 647.5L662.54 650.38L652.33 643.98ZM636.33 650.82L648.74 641.7L631.09 630.64L636.33 650.82Z" fill="#4A8BF1"/>
<path id="Vector_32" d="M697.39 617.71L693.05 622.01L654 613.06L677.86 637.06L674.75 640.14L647.39 612.54L651.72 608.24L690.81 617.24L666.92 593.2L670.02 590.12L697.39 617.71Z" fill="#4A8BF1"/>
<path id="Vector_33" d="M701 581.47L710.87 568.29L726.77 580.2L724.35 583.43L719.11 579.5C721.11 584.25 720.62 589.5 716.75 594.6C710.21 603.34 699.18 603.69 690.03 596.84C680.53 589.72 678.42 578.9 684.96 570.16C689.96 563.48 698.08 560.68 705.96 564.95L703.07 568.81C700.561 567.554 697.684 567.239 694.963 567.924C692.241 568.608 689.856 570.246 688.24 572.54C683.44 578.95 685.33 587.36 692.9 593.03C700.47 598.7 709.09 598.23 713.76 592.03C717.52 587.03 718.29 579.54 711.59 574.1L704.23 583.92L701 581.47Z" fill="#4A8BF1"/>
<path id="Vector_34" d="M700.24 549.42L713.91 525.82L717.4 527.82L706 547.52L717.15 553.97L727.54 536.04L731.03 538.04L720.64 555.97L732.64 562.9L744.18 542.99L747.72 544.99L733.9 568.83L700.24 549.42Z" fill="#4A8BF1"/>
<path id="Vector_35" d="M722.2 509.29L735.06 479.89L738.86 481.56L733.34 494.2L765.14 508.12L763.32 512.27L731.52 498.36L726 510.95L722.2 509.29Z" fill="#4A8BF1"/>
<path id="Vector_36" d="M737.48 473.64L739.05 469.39L754.49 475.1L762.18 454.3L746.74 448.59L748.32 444.34L784.77 457.82L783.19 462.07L766 455.72L758.31 476.52L775.48 482.87L773.91 487.13L737.48 473.64Z" fill="#4A8BF1"/>
<path id="Vector_37" d="M751.42 435.13L760.05 409.26L763.87 410.53L756.68 432.1L768.9 436.2L775.46 416.54L779.28 417.81L772.73 437.47L785.85 441.85L793.13 420.01L797.01 421.3L788.3 447.44L751.42 435.13Z" fill="#4A8BF1"/>
<path id="Vector_38" d="M767.63 385.66L775.63 361.12L779.46 362.37L772.85 382.6L785.09 386.6L790.87 368.93L794.7 370.18L789 387.85L806 393.42L804.59 397.73L767.63 385.66Z" fill="#4A8BF1"/>
<path id="Vector_39" d="M800.69 361.84L778.05 353.84L779.57 349.56L802.21 357.56C809.02 359.98 814.4 357.37 816.59 351.2C818.78 345.03 816.24 339.6 809.43 337.2L786.79 329.2L788.31 324.92L810.95 332.92C820.72 336.39 823.33 344.27 820.39 352.55C817.45 360.83 810.46 365.3 800.69 361.84Z" fill="#4A8BF1"/>
<path id="Vector_40" d="M791.19 317.07L803.62 287.48L807.44 289.09L802.11 301.79L834.11 315.23L832.35 319.42L800.35 305.97L795.01 318.67L791.19 317.07Z" fill="#4A8BF1"/>
<path id="Vector_41" d="M828.78 290.25L807.62 278.86L809.77 274.86L830.93 286.24C837.29 289.67 843.01 287.91 846.11 282.14C849.21 276.37 847.54 270.63 841.17 267.21L820 255.83L822.15 251.83L843.33 263.2C852.45 268.11 853.83 276.3 849.66 284.04C845.49 291.78 837.9 295.2 828.78 290.25Z" fill="#4A8BF1"/>
<path id="Vector_42" d="M830 239.41L839.83 226.34C844.91 219.58 851.07 217.9 856.83 222.24C861.53 225.78 862.21 230.56 859.95 235.72L880.04 237.51L876.87 241.72L857.39 239.96L850.49 249.14L863.78 259.14L861.06 262.77L830 239.41ZM854.32 237.41C857.65 232.98 858.14 229.07 854.02 225.97C849.9 222.87 846.28 224.43 842.95 228.86L835.95 238.18L847.32 246.72L854.32 237.41Z" fill="#4A8BF1"/>
<path id="Vector_43" d="M858.58 204.09L878.79 185.78L881.5 188.78L864.65 204.04L873.29 213.59L888.65 199.68L891.36 202.68L876 216.57L885.29 226.82L902.35 211.37L905.09 214.37L884.67 232.86L858.58 204.09Z" fill="#4A8BF1"/>
</g>

</g>
</svg>
