<svg id="Layer_1" data-name="Layer 1" xmlns="http://www.w3.org/2000/svg" viewBox="0 0 241.88 273.44"><defs><style>.cls-1{fill:none;stroke:#5d83c2;stroke-miterlimit:10;stroke-width:0.5px;}.cls-2{fill:#5c83c2;}.cls-3{fill:#4e81c2;}</style></defs><polyline id="graphoutline" class="cls-1" points="31.88 57.31 31.88 232.54 210.48 232.54"/><g id="founddiverse"><path class="cls-2" d="M18.76,38.26h3.61v.57h-3v1.8H22v.56h-2.6V43.7h-.63Z"/><path class="cls-2" d="M25.6,43.78A2.56,2.56,0,0,1,23,41a2.6,2.6,0,1,1,5.18,0A2.55,2.55,0,0,1,25.6,43.78Zm0-5A2,2,0,0,0,23.68,41a1.95,1.95,0,1,0,3.85,0A2,2,0,0,0,25.6,38.74Z"/><path class="cls-2" d="M29.21,41.62V38.26h.63v3.36a1.51,1.51,0,1,0,3,0V38.26h.64v3.36a2,2,0,0,1-2.15,2.16A2,2,0,0,1,29.21,41.62Z"/><path class="cls-2" d="M39.29,43.7h-.85l-3-4.74V43.7h-.61V38.26h.85l3,4.74V38.26h.61Z"/><path class="cls-2" d="M42.67,43.7H40.74V38.26h1.93A2.52,2.52,0,0,1,45.32,41,2.51,2.51,0,0,1,42.67,43.7Zm0-4.87H41.38v4.3h1.27a1.94,1.94,0,0,0,2-2.15A1.94,1.94,0,0,0,42.65,38.83Z"/><path class="cls-2" d="M18.38,47.66a2.08,2.08,0,0,1,2.23,2.2,3,3,0,0,1-3.1,3.24h-2l1-5.44Zm-.81,4.72a2.22,2.22,0,0,0,2.19-2.45,1.38,1.38,0,0,0-1.52-1.55h-1.1l-.7,4Z"/><path class="cls-2" d="M22.09,47.66h.83L22,53.1h-.83Z"/><path class="cls-2" d="M25.35,52.23l2.39-4.57h.88L25.74,53.1h-1l-.95-5.44h.83Z"/><path class="cls-2" d="M29.47,47.66h3.8l-.12.72h-3L29.89,50h2.7l-.12.72H29.76l-.29,1.69h3l-.13.73H28.51Z"/><path class="cls-2" d="M34.43,47.66H36.7c1,0,1.67.57,1.67,1.39a1.65,1.65,0,0,1-1.43,1.7l1,2.35H37l-.9-2.23H34.7l-.39,2.23h-.83Zm1.79,2.54c.7,0,1.3-.33,1.3-1.09,0-.52-.36-.76-1-.76H35.14l-.32,1.85Z"/><path class="cls-2" d="M41,53.18c-1.16,0-2.2-.51-2.14-1.74h.84c0,.69.53,1.05,1.33,1.05.65,0,1.31-.26,1.31-.87,0-.39-.27-.61-.7-.74l-1.08-.34a1.44,1.44,0,0,1-1.1-1.39c0-1,.87-1.57,2-1.57s2,.55,2,1.66h-.84c0-.68-.52-1-1.18-1s-1.19.26-1.19.84c0,.39.29.62.72.76l1.06.33a1.36,1.36,0,0,1,1.11,1.34C43.16,52.59,42.18,53.18,41,53.18Z"/><path class="cls-2" d="M44.92,47.66h3.8l-.12.72h-3L45.34,50H48l-.11.72H45.22l-.3,1.69h3l-.12.73H44Z"/></g><g id="time"><path class="cls-2" d="M192,238.23h4.49v.58h-1.93v4.85h-.63v-4.85H192Z"/><path class="cls-2" d="M197.44,238.23h.64v5.43h-.64Z"/><path class="cls-2" d="M200.14,238.88v4.78h-.61v-5.43h1l1.85,4.84,1.85-4.84h1v5.43h-.62v-4.78l-1.83,4.78H202Z"/><path class="cls-2" d="M206.64,238.23h3.81v.56h-3.18v1.8h2.9v.56h-2.9v1.94h3.22v.57h-3.85Z"/></g><path class="cls-3" d="M47.16,212.77l3.91-5.12.85.65-1.6,2.09,5.21,4-.71.93-5.22-4L48,213.42Z"/><path class="cls-3" d="M60,209.53a3.94,3.94,0,1,1-.08-5.42A3.61,3.61,0,0,1,60,209.53Zm-4.8-4.91c-1,1-1,2.54.27,3.83s2.81,1.35,3.83.36,1-2.54-.26-3.84S56.2,203.63,55.18,204.62Z"/><path class="cls-3" d="M63.94,200.81l2.71-1.91L69,202.18l-.85.6-.7-1a2.81,2.81,0,0,1-1.36,2.57c-1.73,1.23-3.83.68-5.14-1.18a3.62,3.62,0,0,1,.76-5.36,3.2,3.2,0,0,1,4.34.24l-1,.72a2.08,2.08,0,0,0-2.72-.14c-1.21.85-1.33,2.42-.34,3.82s2.51,1.81,3.69,1a2.22,2.22,0,0,0,.69-3.1l-1.8,1.28Z"/><path class="cls-3" d="M67,194.58l4.94-2.41.45.93L68.51,195l1,2L73,195.24l.44.91-3.53,1.72,1,2.12,4-1.93.46.94-5,2.44Z"/><path class="cls-3" d="M73.5,191.52l6.09-2.1.35,1-2.5.86,2.15,6.21-1.12.38-2.14-6.21-2.49.86Z"/><path class="cls-3" d="M81.28,189l1.14-.29.77,3.05,3.94-1-.78-3.05,1.13-.29,1.89,7.4-1.13.29-.85-3.33-3.94,1,.85,3.33-1.14.29Z"/><path class="cls-3" d="M89.52,186.93l5.37-1.21.22,1-4.21,1,.47,2.13,3.84-.86.22,1-3.83.86.51,2.3,4.29-1,.22,1-5.43,1.22Z"/><path class="cls-3" d="M96.3,185.41l3.23-.81c1.7-.42,2.83.11,3.18,1.52a2.06,2.06,0,0,1-1.08,2.43l2.71,2.73-1.29.32L100.49,189l-2,.48.75,3-1.14.29Zm4,2.65c1-.24,1.48-.72,1.25-1.62s-.89-1.09-1.86-.85l-2,.5.61,2.46Z"/><path class="cls-3" d="M107.11,190.72a1.37,1.37,0,0,1-1.11,1.84l-.19-.64c.54-.17.73-.49.58-1l-.07-.26-.62.19-.4-1.34,1.35-.4Z"/><path class="cls-3" d="M117.5,186.69l-4.1-5.27.81,6.63-1.4.57L108,182.34l1.12-.46,4,5.29-.81-6.59,1.3-.54,4.07,5.26-.91-6.56,1.09-.45,1.05,7.82Z"/><path class="cls-3" d="M118.61,177.73l4.8-2.69.5.9-3.77,2.12,1.07,1.91,3.43-1.92.49.88-3.42,1.92,1.15,2.06,3.83-2.15.51.91-4.85,2.72Z"/><path class="cls-3" d="M133.09,176.57a2.07,2.07,0,0,0,.69-2.66l1-.74a3.16,3.16,0,0,1-1.09,4.22,3.95,3.95,0,0,1-4.67-6.34,3.15,3.15,0,0,1,4.35.21l-1,.74a2.09,2.09,0,0,0-2.75-.14c-1.13.84-1.29,2.38-.24,3.81S132,177.41,133.09,176.57Z"/><path class="cls-3" d="M132.73,168.38l.87-.78,2.1,2.35,3-2.71-2.09-2.34.87-.78,5.08,5.69-.87.78L139.43,168l-3,2.7,2.28,2.56-.87.79Z"/><path class="cls-3" d="M146.07,163.36l-2.38,2.54.91,1.9-.83.88-3.53-7.39,1-1.07,7.62,3-.85.9ZM143.2,165l1.9-2-3.6-1.47Z"/><path class="cls-3" d="M153.93,156.8,153,158l-7.31-.74,4.93,3.82-.69.89-6-4.67.91-1.18,7.32.74L147.2,153l.69-.9Z"/><path class="cls-3" d="M153.64,149.82l1.72-2.84,3.43,2.08-.54.89-1-.62a2.84,2.84,0,0,1-.21,2.91c-1.1,1.81-3.24,2.15-5.19,1a3.62,3.62,0,0,1-1.45-5.21,3.19,3.19,0,0,1,4.07-1.52l-.64,1.06a2.1,2.1,0,0,0-2.55,1c-.77,1.26-.26,2.75,1.21,3.64s3,.65,3.78-.58a2.23,2.23,0,0,0-.6-3.12l-1.15,1.89Z"/><path class="cls-3" d="M152.91,143.76l2.27-5,.95.43-1.79,3.94,2,.9,1.62-3.58.92.42-1.62,3.58,2.15,1,1.81-4,.95.43-2.3,5.08Z"/><path class="cls-3" d="M156.14,136.19,158,130l1,.32-.77,2.52,6.28,1.94-.35,1.12L157.94,134l-.78,2.51Z"/><path class="cls-3" d="M158.29,129l.28-1.15,3.05.76,1-3.94-3.06-.76.28-1.13,7.42,1.83-.28,1.14-3.34-.83-1,3.94,3.33.83-.28,1.14Z"/><path class="cls-3" d="M160.26,120.93l1.34-5.33,1,.25-1,4.19,2.12.53,1-3.81,1,.25-1,3.81,2.29.57,1.06-4.26,1,.26-1.36,5.4Z"/><path class="cls-3" d="M162.8,111.32l1.64-5,1,.32-1.27,3.85,2.14.71,1.12-3.39,1,.32-1.11,3.39,3.15,1-.36,1.12Z"/><path class="cls-3" d="M169.28,106.61,165,104.78l.46-1.08,4.28,1.82a1.94,1.94,0,1,0,1.52-3.57L167,100.13l.46-1.09,4.29,1.83a3.12,3.12,0,0,1-2.45,5.74Z"/><path class="cls-3" d="M168.16,97.56l3.08-5.66.94.51-1.27,2.32,5.78,3.13-.57,1-5.77-3.14-1.26,2.31Z"/><path class="cls-3" d="M176,93.08l-3.88-2.58.66-1,3.87,2.58a1.95,1.95,0,1,0,2.15-3.23l-3.87-2.58.65-1,3.87,2.58A3.12,3.12,0,0,1,176,93.08Z"/><path class="cls-3" d="M176.89,83.49,179,80.88c1.09-1.36,2.31-1.63,3.44-.73a2.07,2.07,0,0,1,.63,2.59l3.81.51-.83,1-3.6-.48-1.25,1.58,2.43,1.93-.73.93Zm4.77-.32c.62-.78.73-1.47,0-2s-1.38-.33-2,.46l-1.27,1.6,2,1.58Z"/><path class="cls-3" d="M182.09,77.11l3.76-4,.75.7L183.65,77l1.6,1.49,2.68-2.87.74.69L186,79.14l1.73,1.61,3-3.21.77.71-3.8,4.07Z"/></svg>