<svg width="341" height="341" viewBox="0 0 341 341" fill="none" xmlns="http://www.w3.org/2000/svg">
<g clip-path="url(#clip0)">
<path d="M91.9999 38.3399L94.5799 37.0199C96.2399 39.6599 99.5799 40.0199 102.92 38.3199C106.26 36.6199 107.74 33.8699 106.56 31.5699C105.8 30.0999 104.36 29.3299 101.91 29.9199L95.3099 31.5599C92.0499 32.3799 89.31 31.4599 87.78 28.4499C86 24.9799 87.9899 20.9299 92.3499 18.6899C96.7099 16.4499 101.49 17.0699 103.53 20.9899L100.95 22.3099C99.2099 19.5199 96.3399 19.3099 93.4899 20.8299C90.4899 22.3699 89.0799 24.9499 90.2299 27.1899C90.9899 28.6599 92.4499 29.4599 94.8799 28.8399L101.48 27.1999C104.75 26.3799 107.48 27.3299 109.03 30.3399C110.83 33.8399 109.03 37.8999 103.97 40.4999C98.9099 43.0999 94.3899 42.5499 91.9999 38.3399Z" fill="#4A8BF1"/>
<path d="M109.02 11.6201L111.63 10.6201L120.07 33.0302L117.46 34.0302L109.02 11.6201Z" fill="#4A8BF1"/>
<path d="M133.8 16.1999L143.67 13.8599L146.49 25.7799L144.07 26.3499L143.14 22.4299C142.23 25.4299 139.93 27.7299 136.07 28.6399C129.52 30.1899 124.17 25.9999 122.55 19.1499C120.86 12.0299 124.13 6.07994 130.68 4.52994C135.68 3.34994 140.68 5.22994 142.68 10.3499L139.79 11.0299C139.096 9.44916 137.86 8.16831 136.306 7.41836C134.751 6.66842 132.979 6.49871 131.31 6.93991C126.51 8.07991 124.08 12.7999 125.42 18.4699C126.76 24.1399 131.03 27.3199 135.69 26.2199C139.45 25.3299 142.76 22.0999 141.69 16.8799L134.34 18.6199L133.8 16.1999Z" fill="#4A8BF1"/>
<path d="M172.52 23.91L168.77 24.1L154.52 3.91998L155.52 24.76L152.84 24.9L151.63 0.98999L155.38 0.799988L169.63 20.98L168.63 0.130005L171.32 0L172.52 23.91Z" fill="#4A8BF1"/>
<path d="M189.23 15.9301L191.91 1.37012L194.66 1.88013L191.98 16.4401C191.17 20.8101 193.28 23.8301 197.25 24.5701C201.22 25.3101 204.25 23.2302 205.08 18.8502L207.76 4.29016L210.51 4.80011L207.83 19.3601C206.67 25.6401 202.13 27.9901 196.83 27.0101C191.53 26.0301 188.05 22.2001 189.23 15.9301Z" fill="#4A8BF1"/>
<path d="M224.04 24.3298L218.04 22.1798L214.83 31.0698L212.2 30.0698L220.32 7.5498L228.92 10.6498C234.04 12.4898 236.26 15.7098 234.58 20.3798C232.9 25.0498 229.16 26.1998 224.04 24.3298ZM228.1 13.0298L222.1 10.8798L218.88 19.8798L224.88 22.0298C228.64 23.3898 230.77 22.5698 231.88 19.4898C232.99 16.4098 231.87 14.3898 228.1 13.0298Z" fill="#4A8BF1"/>
<path d="M253.89 22.1099L267.4 30.4999L266.09 32.6099L254.96 25.6899L250.77 32.4299L260.5 38.4299L259.19 40.5399L249.46 34.5399L243.63 43.9199L241.26 42.4399L253.89 22.1099Z" fill="#4A8BF1"/>
<path d="M265.91 60.44C260.79 55.97 260.54 49.22 265.42 43.63C270.3 38.04 277.02 37.36 282.14 41.82C287.26 46.28 287.51 53.05 282.63 58.64C277.75 64.23 271.03 64.91 265.91 60.44ZM280.51 43.69C276.95 40.59 271.73 40.85 267.63 45.55C263.53 50.25 263.98 55.46 267.54 58.55C271.1 61.64 276.32 61.4 280.42 56.69C284.52 51.98 284.07 46.8 280.51 43.69Z" fill="#4A8BF1"/>
<path d="M297 56.6899L303.33 64.53C306.6 68.59 306.67 72.5299 303.2 75.3199C300.38 77.5899 297.42 77.32 294.68 75.14L290.58 86.8799L288.58 84.35L292.58 72.97L288.13 67.47L280.13 73.9L278.37 71.73L297 56.6899ZM294.51 71.52C296.65 74.17 298.91 75.0499 301.38 73.0599C303.85 71.0699 303.47 68.6699 301.33 66.0099L296.82 60.4299L290 65.9299L294.51 71.52Z" fill="#4A8BF1"/>
<path d="M304.03 106.67C304.73 108.233 305.973 109.49 307.528 110.207C309.084 110.924 310.847 111.053 312.49 110.57L313.78 113.24C308.94 114.8 304.19 112.72 301.78 107.74C298.91 101.74 301.34 95.44 308.02 92.23C314.7 89.02 321.17 91.0799 324.02 97.0499C326.41 102.05 325.07 107.05 320.83 109.83L319.54 107.16C320.937 106.183 321.933 104.734 322.345 103.079C322.757 101.425 322.556 99.6778 321.78 98.16C319.78 93.93 314.78 92.28 309.27 94.91C303.76 97.54 302 102.44 304.03 106.67Z" fill="#4A8BF1"/>
<path d="M331.42 115.4L332.16 118.09L322.39 120.81L326.04 133.98L335.82 131.26L336.57 133.95L313.49 140.36L312.74 137.67L323.62 134.67L319.96 121.5L309.09 124.5L308.34 121.81L331.42 115.4Z" fill="#4A8BF1"/>
<path d="M322.96 161.14L321.87 149.77L314.74 147.68L314.47 144.83L339.23 152.2L339.55 155.49L316.64 167.49L316.35 164.49L322.96 161.14ZM324.4 150.5L325.31 159.94L336.74 154.1L324.4 150.5Z" fill="#4A8BF1"/>
<path d="M314.99 191.68L315.28 187.93L337.13 176.4L316.32 174.76L316.53 172.08L340.4 173.96L340.11 177.71L318.23 189.2L339.04 190.84L338.82 193.53L314.99 191.68Z" fill="#4A8BF1"/>
<path d="M323.05 211.4L320.43 221.2L308.6 218.03L309.24 215.63L313.14 216.68C310.88 214.43 310 211.34 311.02 207.51C312.76 201.01 319.02 198.28 325.78 200.1C332.85 201.99 336.54 207.69 334.78 214.19C333.45 219.19 329.46 222.62 323.99 221.98L324.75 219.11C326.472 219.252 328.187 218.772 329.585 217.758C330.984 216.743 331.972 215.261 332.37 213.58C333.65 208.81 330.64 204.44 325.01 202.93C319.38 201.42 314.56 203.67 313.32 208.3C312.32 212.04 313.6 216.48 318.68 218.06L320.68 210.76L323.05 211.4Z" fill="#4A8BF1"/>
<path d="M327.93 234.1L320.93 249.35L318.68 248.35L324.54 235.63L317.33 232.31L311.99 243.91L309.73 242.91L315.08 231.32L307.34 227.75L301.41 240.63L299.12 239.57L306.22 224.16L327.93 234.1Z" fill="#4A8BF1"/>
<path d="M252.12 299.82L249.58 301.22C247.84 298.63 244.49 298.34 241.2 300.15C237.91 301.96 236.51 304.74 237.76 307.01C238.55 308.46 240.02 309.19 242.45 308.52L249 306.69C252.24 305.78 255 306.63 256.62 309.59C258.5 313.01 256.62 317.11 252.32 319.47C248.02 321.83 243.24 321.36 241.08 317.47L243.62 316.08C245.44 318.82 248.32 318.89 251.13 317.34C254.13 315.72 255.41 313.1 254.2 310.89C253.4 309.44 251.92 308.68 249.51 309.38L242.96 311.21C239.72 312.12 236.96 311.21 235.32 308.27C233.43 304.83 235.1 300.72 240.09 297.97C245.08 295.22 249.61 295.69 252.12 299.82Z" fill="#4A8BF1"/>
<path d="M235.88 327L233.29 328.06L224.23 305.91L226.81 304.85L235.88 327Z" fill="#4A8BF1"/>
<path d="M210.98 323.2L201.18 325.82L198.02 313.99L200.42 313.34L201.42 317.24C202.24 314.17 204.48 311.86 208.31 310.83C214.81 309.09 220.31 313.13 222.1 319.93C223.99 326.99 220.89 333.03 214.39 334.77C209.39 336.1 204.39 334.37 202.25 329.3L205.12 328.54C205.857 330.104 207.13 331.351 208.708 332.055C210.286 332.76 212.064 332.875 213.72 332.38C218.48 331.11 220.72 326.32 219.27 320.68C217.82 315.04 213.41 312 208.78 313.24C205.05 314.24 201.83 317.56 203 322.75L210.3 320.75L210.98 323.2Z" fill="#4A8BF1"/>
<path d="M172.06 316.53L175.8 316.23L190.62 336L188.98 315.2L191.66 314.99L193.54 338.86L189.8 339.16L174.98 319.39L176.62 340.2L173.94 340.41L172.06 316.53Z" fill="#4A8BF1"/>
<path d="M155.58 324.96L153.31 339.58L150.55 339.16L152.82 324.53C153.5 320.13 151.31 317.17 147.32 316.53C143.33 315.89 140.32 318.06 139.66 322.46L137.39 337.08L134.63 336.65L136.9 322.03C137.9 315.72 142.35 313.24 147.7 314.03C153.05 314.82 156.56 318.65 155.58 324.96Z" fill="#4A8BF1"/>
<path d="M120.53 317.56L126.53 319.56L129.53 310.56L132.18 311.43L124.7 334.2L116.01 331.35C110.83 329.65 108.53 326.5 110.07 321.78C111.61 317.06 115.35 315.86 120.53 317.56ZM116.78 328.96L122.78 330.96L125.78 321.96L119.78 319.96C115.98 318.71 113.88 319.58 112.86 322.69C111.84 325.8 112.98 327.71 116.78 328.96Z" fill="#4A8BF1"/>
<path d="M90.7302 320.61L76.9902 312.61L78.2402 310.46L89.5602 317.07L93.5602 310.21L83.6702 304.44L84.9202 302.3L94.8102 308.07L100.37 298.53L102.79 299.94L90.7302 320.61Z" fill="#4A8BF1"/>
<path d="M77.6499 282.63C82.8999 286.96 83.3299 293.7 78.6499 299.43C73.9699 305.16 67.2299 306.02 61.9799 301.7C56.7299 297.38 56.2999 290.63 60.9799 284.9C65.6599 279.17 72.3999 278.31 77.6499 282.63ZM63.5199 299.78C67.1699 302.78 72.3699 302.38 76.3499 297.56C80.3299 292.74 79.7198 287.56 76.0698 284.56C72.4198 281.56 67.2199 281.96 63.2499 286.78C59.2799 291.6 59.8699 296.77 63.5199 299.78V299.78Z" fill="#4A8BF1"/>
<path d="M46.7 287.27L40.1601 279.62C36.7701 275.62 36.59 271.73 39.97 268.83C42.73 266.48 45.7001 266.71 48.5001 268.77L52.2601 256.92L54.3701 259.39L50.7 270.87L55.3 276.25L63.09 269.59L64.9101 271.72L46.7 287.27ZM48.7801 272.39C46.5601 269.79 44.27 268.98 41.86 271.04C39.45 273.1 39.86 275.48 42.11 278.04L46.7801 283.5L53.44 277.8L48.7801 272.39Z" fill="#4A8BF1"/>
<path d="M38.2303 237.48C37.4883 235.934 36.2101 234.711 34.6336 234.038C33.0571 233.365 31.2897 233.287 29.6603 233.82L28.3002 231.18C33.1002 229.49 37.9002 231.43 40.4302 236.34C43.4302 242.23 41.2203 248.63 34.6203 252.03C28.0203 255.43 21.5102 253.55 18.4702 247.66C15.9402 242.75 17.1502 237.66 21.3102 234.79L22.6702 237.42C21.2887 238.435 20.324 239.919 19.956 241.593C19.5879 243.268 19.8418 245.019 20.6702 246.52C22.8202 250.69 27.8703 252.2 33.2703 249.42C38.6703 246.64 40.3803 241.65 38.2303 237.48Z" fill="#4A8BF1"/>
<path d="M10.63 229.53L9.79993 226.86L19.5 223.86L15.5 210.8L5.80994 213.8L4.97998 211.13L27.87 204.13L28.6899 206.8L17.91 210.12L21.91 223.18L32.7 219.86L33.52 222.53L10.63 229.53Z" fill="#4A8BF1"/>
<path d="M17.7902 183.6L19.2001 194.93L26.3801 196.82L26.7401 199.67L1.74011 192.95L1.33008 189.67L23.8901 177.03L24.2601 180.03L17.7902 183.6ZM16.6501 194.28L15.4801 184.86L4.2301 191.02L16.6501 194.28Z" fill="#4A8BF1"/>
<path d="M24.9103 152.85L24.7202 156.61L3.23022 168.74L24.0802 169.8L23.9402 172.49L0.0302734 171.27L0.220215 167.52L21.7402 155.38L0.890259 154.32L1.03027 151.63L24.9103 152.85Z" fill="#4A8BF1"/>
<path d="M16.2902 133.36L18.6302 123.49L30.5501 126.32L29.9702 128.73L26.0501 127.8C28.3601 129.98 29.3401 133.05 28.4201 136.91C26.8701 143.46 20.7202 146.36 13.8702 144.73C6.76019 143.04 2.87016 137.45 4.46016 130.9C5.65016 125.9 9.54023 122.32 15.0302 122.81L14.3502 125.7C12.625 125.608 10.9238 126.136 9.55391 127.189C8.184 128.242 7.2357 129.749 6.8802 131.44C5.7402 136.24 8.88013 140.53 14.5501 141.88C20.2201 143.23 24.9702 140.88 26.0802 136.18C26.9702 132.42 25.5702 128.01 20.4502 126.58L18.7002 133.93L16.2902 133.36Z" fill="#4A8BF1"/>
<path d="M10.77 110.78L17.37 95.3398L19.65 96.3398L14.15 109.22L21.45 112.34L26.45 100.6L28.73 101.6L23.73 113.33L31.5699 116.68L37.13 103.68L39.45 104.68L32.78 120.2L10.77 110.78Z" fill="#4A8BF1"/>
</g>
<defs>
<clipPath id="clip0">
<rect width="340.4" height="340.4" fill="white"/>
</clipPath>
</defs>
</svg>
