<svg width="342" height="348" viewBox="0 0 342 348" fill="none" xmlns="http://www.w3.org/2000/svg">
<g clip-path="url(#clip0)">
<path d="M20.35 144.04L20.83 142.23C25.15 143.09 27.93 140.44 29.23 135.57C30.58 130.57 29.23 126.8 25.71 125.85C23.39 125.23 21.27 126.2 19.71 128.85L15.86 135.85C14.11 138.98 11.38 140.7 7.94003 139.78C3.84003 138.68 1.67003 134.13 3.12003 128.68C4.51003 123.46 8.53003 120.35 13.34 121.43L12.85 123.25C8.59003 122.32 5.85003 125.17 4.74003 129.11C3.61003 133.36 4.89003 137.11 8.36003 138.03C10.68 138.65 12.8 137.68 14.31 134.98L18.16 127.98C19.91 124.84 22.64 123.13 26.08 124.05C30.33 125.19 32.47 129.73 30.81 135.95C29.28 141.76 25.74 145.08 20.35 144.04Z" fill="#4E81C2"/>
<path d="M9.56 110.43L10.21 108.8L36.02 119.02L35.35 120.7L9.56 110.43Z" fill="#4E81C2"/>
<path d="M32.11 95.77L37.59 85.95L49.46 92.58L48.72 93.91L43.72 91.12C44.9581 92.7717 45.6787 94.7534 45.7908 96.8145C45.9029 98.8756 45.4016 100.924 44.35 102.7C40.78 109.09 33.13 111.05 25.62 106.86C18.11 102.67 15.73 95.19 19.3 88.8C22.3 83.49 27.82 81.92 33.02 83.68L32.02 85.39C29.939 84.6284 27.6528 84.6452 25.5833 85.4374C23.5137 86.2296 21.8006 87.7436 20.76 89.7C17.76 95.01 19.6 101.47 26.48 105.31C33.36 109.15 39.88 107.25 42.84 101.94C45.09 97.94 44.97 92.13 38.31 88.32L33.64 96.66L32.11 95.77Z" fill="#4E81C2"/>
<path d="M67.19 70.9601L65.6 72.8101L34.98 69.4301L54.35 85.98L53.21 87.3201L32.1 69.3201L33.69 67.47L64.35 70.8201L44.93 54.2701L46.08 52.9301L67.19 70.9601Z" fill="#4E81C2"/>
<path d="M72.28 52.7L62.09 38.34L63.52 37.34L73.67 51.56C76.96 56.19 81.77 56.94 85.97 53.94C90.17 50.94 91.04 46.16 87.74 41.53L77.6 27.29L79.03 26.29L89.22 40.59C93.33 46.36 91.65 51.93 86.93 55.3C82.21 58.67 76.35 58.41 72.28 52.7Z" fill="#4E81C2"/>
<path d="M104.73 30.8401L97.22 34.4201L102.28 45.0301L100.69 45.7901L88.74 20.7001L97.84 16.3601C103.51 13.6601 107.68 14.9501 109.84 19.5001C112 24.0501 110.4 28.1301 104.73 30.8401ZM98.6 17.8401L91.05 21.4401L96.5 32.8501L104.04 29.2501C108.77 27.0001 109.96 23.9901 108.19 20.2501C106.42 16.5101 103.35 15.6301 98.6 17.8901V17.8401Z" fill="#4E81C2"/>
<path d="M124.94 6.26997L142.09 2.33997L142.46 3.97997L127.02 7.51997L129.35 17.85L142.76 14.77L143.14 16.41L129.73 19.48L132.81 32.93L131.1 33.33L124.94 6.26997Z" fill="#4E81C2"/>
<path d="M163.4 28.6199C155.93 29.0099 150.28 23.5699 149.84 14.9899C149.4 6.40994 154.45 0.409941 161.92 -0.0100595C169.39 -0.430059 175.04 4.98994 175.48 13.6299C175.92 22.2699 170.87 28.2299 163.4 28.6199ZM162.01 1.69994C156.01 2.00994 151.26 6.69994 151.68 14.8499C152.1 22.9999 157.35 27.2099 163.35 26.8999C169.35 26.5899 174.11 21.8999 173.69 13.7499C173.27 5.59994 168 1.42994 162.01 1.69994Z" fill="#4E81C2"/>
<path d="M185.22 0.540039L196.51 2.10004C202.17 2.88004 204.88 6.41004 204.27 10.76C203.74 14.61 200.89 17.16 196.37 17.14L202.73 30.98L200.67 30.7L194.35 16.99L184.9 15.7L183.16 28.3L181.42 28.06L185.22 0.540039ZM194.64 15.33C199.23 15.96 201.95 14.16 202.45 10.51C202.95 6.86004 200.83 4.40004 196.24 3.76004L186.73 2.45004L185.13 14.02L194.64 15.33Z" fill="#4E81C2"/>
<path d="M226.35 37.48C228.387 38.3244 230.661 38.4071 232.754 37.713C234.847 37.0189 236.621 35.5944 237.75 33.7L239.57 34.43C236.64 39.07 231.34 41.35 225.69 39.1C218.89 36.38 216.03 29.1 219.22 21.1C222.41 13.1 229.5 9.78001 236.3 12.5C241.95 14.75 244.23 20.05 243.15 25.44L241.35 24.7C241.838 22.5427 241.532 20.2818 240.489 18.3314C239.446 16.3811 237.735 14.8718 235.67 14.08C230.03 11.83 223.86 14.45 220.94 21.77C218.02 29.09 220.68 35.23 226.35 37.48Z" fill="#4E81C2"/>
<path d="M255.67 21.87L257.15 22.82L250.58 33.1L265.2 42.45L271.78 32.18L273.26 33.12L258.35 56.51L256.87 55.57L264.35 43.87L249.72 34.52L242.24 46.21L240.76 45.21L255.67 21.87Z" fill="#4E81C2"/>
<path d="M282.28 65.76L272.17 56.19L263.09 60.19L261.72 58.9L289.28 46.75L290.76 48.16L280.23 76.4L278.81 75.06L282.28 65.76ZM273.85 55.47L282.91 64.04L288.58 48.97L273.85 55.47Z" fill="#4E81C2"/>
<path d="M295.44 97.1499L294.02 95.1499L304.53 66.1499L283.87 81.0699L282.87 79.6499L305.35 63.4399L306.78 65.4399L296.26 94.4399L316.92 79.5199L317.92 80.9499L295.44 97.1499Z" fill="#4E81C2"/>
<path d="M315.95 107.56L320.63 117.78L308.26 123.44L307.63 122.06L312.83 119.68C310.763 119.697 308.737 119.1 307.01 117.964C305.283 116.828 303.933 115.205 303.13 113.3C300.13 106.64 303.02 99.2999 310.85 95.7299C318.68 92.1599 326.1 94.65 329.15 101.3C331.68 106.83 329.66 112.24 325.15 115.4L324.33 113.62C326.174 112.399 327.516 110.553 328.109 108.423C328.703 106.292 328.508 104.019 327.56 102.02C325.03 96.49 318.76 94.1299 311.56 97.4099C304.36 100.69 302.08 107.07 304.61 112.6C306.52 116.78 311.26 120.11 318.28 116.99L314.28 108.3L315.95 107.56Z" fill="#4E81C2"/>
<path d="M337.11 122.96L341.67 141.11L340.04 141.52L335.91 125.07L325.28 127.7L329.06 142.75L327.43 143.16L323.65 128.11L312.25 130.97L316.41 147.57L314.78 147.98L310.19 129.7L337.11 122.96Z" fill="#4E81C2"/>
<path d="M321.35 205.13L320.84 206.94C316.53 206.02 313.72 208.63 312.35 213.48C310.94 218.48 312.21 222.25 315.75 223.25C318.06 223.9 320.2 222.96 321.75 220.25L325.69 213.34C327.48 210.23 330.23 208.56 333.69 209.52C337.77 210.67 339.89 215.25 338.36 220.68C336.9 225.88 332.84 228.93 328.05 227.79L328.56 225.98C332.81 226.98 335.64 224.15 336.74 220.22C337.93 215.99 336.74 212.22 333.24 211.22C330.93 210.57 328.8 211.51 327.24 214.22L323.35 221.17C321.56 224.28 318.8 225.96 315.35 224.99C311.12 223.8 309.04 219.23 310.78 212.99C312.35 207.29 315.96 204.02 321.35 205.13Z" fill="#4E81C2"/>
<path d="M331.68 238.89L331.01 240.52L305.35 229.95L306.03 228.33L331.68 238.89Z" fill="#4E81C2"/>
<path d="M308.96 253.22L303.35 262.96L291.57 256.17L292.32 254.86L297.32 257.71C296.107 256.037 295.419 254.041 295.342 251.975C295.266 249.91 295.804 247.869 296.89 246.11C300.54 239.77 308.21 237.91 315.66 242.2C323.11 246.49 325.4 253.98 321.75 260.33C318.75 265.6 313.15 267.1 307.97 265.27L308.97 263.57C311.033 264.362 313.313 264.384 315.39 263.631C317.468 262.878 319.204 261.4 320.28 259.47C323.28 254.2 321.6 247.72 314.77 243.79C307.94 239.86 301.35 241.7 298.35 246.95C296.05 250.95 296.09 256.73 302.7 260.63L307.47 252.34L308.96 253.22Z" fill="#4E81C2"/>
<path d="M273.53 277.6L275.14 275.77L305.71 279.55L286.56 262.75L287.72 261.43L308.59 279.7L306.98 281.54L276.41 277.75L295.56 294.56L294.4 295.88L273.53 277.6Z" fill="#4E81C2"/>
<path d="M268.21 295.83L278.21 310.26L276.76 311.26L266.76 296.89C263.52 292.22 258.76 291.41 254.49 294.35C250.22 297.29 249.35 302.07 252.61 306.7L262.56 321.07L261.12 322.07L251.12 307.64C247.12 301.82 248.84 296.27 253.6 292.97C258.36 289.67 264.18 290.01 268.21 295.83Z" fill="#4E81C2"/>
<path d="M235.48 317.22L243.03 313.73L238.11 303.05L239.71 302.32L251.35 327.53L242.17 331.7C236.47 334.33 232.33 332.98 230.22 328.41C228.11 323.84 229.77 319.84 235.48 317.22ZM241.43 330.22L249.03 326.72L243.74 315.24L236.14 318.74C231.39 320.93 230.14 323.92 231.89 327.66C233.64 331.4 236.68 332.43 241.43 330.24V330.22Z" fill="#4E81C2"/>
<path d="M214.92 341.52L197.72 345.23L197.36 343.58L212.85 340.25L210.62 329.89L197.17 332.78L196.81 331.14L210.26 328.25L207.36 314.75L209.08 314.38L214.92 341.52Z" fill="#4E81C2"/>
<path d="M176.77 318.7C184.25 318.41 189.83 323.92 190.16 332.51C190.49 341.1 185.36 347.03 177.88 347.32C170.4 347.61 164.83 342.1 164.5 333.5C164.17 324.9 169.35 318.95 176.77 318.7ZM177.77 345.6C183.77 345.37 188.59 340.7 188.28 332.6C187.97 324.5 182.8 320.21 176.8 320.44C170.8 320.67 165.98 325.34 166.29 333.44C166.6 341.54 171.82 345.79 177.81 345.56L177.77 345.6Z" fill="#4E81C2"/>
<path d="M154.6 346.46L143.35 344.75C137.7 343.89 135.04 340.33 135.7 335.98C136.28 332.14 139.17 329.63 143.7 329.71L137.52 315.78L139.57 316.09L145.7 329.89L155.15 331.32L157.02 318.7L158.76 318.97L154.6 346.46ZM145.35 331.54C140.76 330.85 138.02 332.62 137.47 336.25C136.92 339.88 139.01 342.4 143.6 343.09L153.09 344.53L154.84 332.98L145.35 331.54Z" fill="#4E81C2"/>
<path d="M113.99 308.99C111.959 308.115 109.681 308.002 107.573 308.673C105.466 309.343 103.672 310.752 102.52 312.64L100.71 311.89C103.71 307.28 109.03 305.07 114.65 307.4C121.41 310.2 124.18 317.53 120.89 325.48C117.6 333.43 110.46 336.66 103.7 333.86C98.08 331.54 95.87 326.21 97.01 320.86L98.82 321.61C98.3056 323.755 98.5816 326.013 99.5973 327.971C100.613 329.929 102.3 331.455 104.35 332.27C109.96 334.6 116.17 332.06 119.18 324.77C122.19 317.48 119.61 311.31 113.99 308.99Z" fill="#4E81C2"/>
<path d="M84.45 324.2L82.98 323.2L89.69 313.01L75.19 303.47L68.48 313.7L67.01 312.7L82.27 289.51L83.74 290.51L76.11 302.1L90.61 311.65L98.24 300.05L99.71 301.05L84.45 324.2Z" fill="#4E81C2"/>
<path d="M58.35 279.96L68.35 289.7L77.48 285.81L78.83 287.12L51.15 298.85L49.69 297.43L60.58 269.32L61.99 270.7L58.35 279.96ZM66.65 290.36L57.65 281.67L51.79 296.67L66.65 290.36Z" fill="#4E81C2"/>
<path d="M45.64 248.4L47.05 250.4L36.15 279.23L57.01 264.57L58.01 266.01L35.35 281.98L33.95 279.98L44.84 251.16L23.94 265.81L22.94 264.37L45.64 248.4Z" fill="#4E81C2"/>
<path d="M25.28 237.7L20.73 227.41L33.18 221.92L33.79 223.31L28.56 225.7C30.6266 225.711 32.6433 226.336 34.3543 227.495C36.0653 228.654 37.3933 230.295 38.17 232.21C41.17 238.9 38.1 246.21 30.23 249.67C22.36 253.13 14.96 250.55 12.01 243.86C9.55003 238.3 11.63 232.92 16.17 229.86L16.96 231.65C15.1019 232.847 13.7373 234.673 13.1165 236.795C12.4957 238.916 12.6603 241.19 13.58 243.2C16.04 248.77 22.28 251.2 29.49 248.03C36.7 244.86 39.09 238.49 36.63 232.93C34.77 228.72 30.08 225.33 23.02 228.36L26.89 237.1L25.28 237.7Z" fill="#4E81C2"/>
<path d="M4.35 222.02L0 203.8L1.63 203.42L5.54 219.92L16.2 217.4L12.63 202.29L14.26 201.91L17.84 217.01L29.29 214.3L25.35 197.64L26.99 197.25L31.35 215.63L4.35 222.02Z" fill="#4E81C2"/>
</g>
<defs>
<clipPath id="clip0">
<rect width="341.67" height="347.29" fill="white"/>
</clipPath>
</defs>
</svg>
